<mxfile host="app.diagrams.net" modified="2024-11-02T05:20:13.240Z" agent="Mozilla/5.0 (Windows NT 10.0; Win64; x64) AppleWebKit/537.36 (KHTML, like Gecko) Chrome/130.0.0.0 Safari/537.36 Edg/130.0.0.0" etag="fzwLNyFlhuCWAH-MKiVH" version="24.2.1" type="device">
  <diagram name="第 1 页" id="kMSIYIFfKiQb9A0STIgp">
    <mxGraphModel dx="1843" dy="940" grid="1" gridSize="10" guides="1" tooltips="1" connect="1" arrows="1" fold="1" page="1" pageScale="1" pageWidth="2339" pageHeight="3300" math="0" shadow="0">
      <root>
        <mxCell id="0" />
        <mxCell id="1" parent="0" />
        <mxCell id="2YYJSOCBqzGEI2krs-ln-3" value="&#xa;    &#xa;        &#xa;            &#xa;                &#xa;                &#xa;                &#xa;                    &#xa;                &#xa;                &#xa;                    &#xa;                &#xa;                &#xa;                    &#xa;                &#xa;                &#xa;                    &#xa;                &#xa;                &#xa;                    &#xa;                &#xa;                &#xa;                    &#xa;                &#xa;                &#xa;                    &#xa;                &#xa;                &#xa;                    &#xa;                &#xa;                &#xa;                    &#xa;                &#xa;                &#xa;                    &#xa;                &#xa;                &#xa;                    &#xa;                &#xa;                &#xa;                    &#xa;                &#xa;                &#xa;                    &#xa;                &#xa;                &#xa;                    &#xa;                &#xa;                &#xa;                    &#xa;                &#xa;                &#xa;                    &#xa;                &#xa;            &#xa;        &#xa;    &#xa;" style="text;whiteSpace=wrap;html=1;" parent="1" vertex="1">
          <mxGeometry x="840" y="750" width="30" height="840" as="geometry" />
        </mxCell>
        <mxCell id="Q8BQOyd_WktS5H_BzxXp-2" value="学生表" style="rounded=0;whiteSpace=wrap;html=1;" vertex="1" parent="1">
          <mxGeometry x="540" y="392.5" width="70" height="30" as="geometry" />
        </mxCell>
        <mxCell id="Q8BQOyd_WktS5H_BzxXp-3" value="性别" style="ellipse;whiteSpace=wrap;html=1;" vertex="1" parent="1">
          <mxGeometry x="720" y="280" width="80" height="45" as="geometry" />
        </mxCell>
        <mxCell id="Q8BQOyd_WktS5H_BzxXp-4" value="" style="endArrow=none;html=1;rounded=0;entryX=0;entryY=0.5;entryDx=0;entryDy=0;exitX=1;exitY=0.5;exitDx=0;exitDy=0;" edge="1" parent="1" source="Q8BQOyd_WktS5H_BzxXp-2" target="Q8BQOyd_WktS5H_BzxXp-3">
          <mxGeometry width="50" height="50" relative="1" as="geometry">
            <mxPoint x="670" y="330" as="sourcePoint" />
            <mxPoint x="680" y="320" as="targetPoint" />
          </mxGeometry>
        </mxCell>
        <mxCell id="Q8BQOyd_WktS5H_BzxXp-6" value="学院" style="ellipse;whiteSpace=wrap;html=1;" vertex="1" parent="1">
          <mxGeometry x="720" y="335" width="80" height="45" as="geometry" />
        </mxCell>
        <mxCell id="Q8BQOyd_WktS5H_BzxXp-7" value="姓名" style="ellipse;whiteSpace=wrap;html=1;" vertex="1" parent="1">
          <mxGeometry x="720" y="230" width="80" height="45" as="geometry" />
        </mxCell>
        <mxCell id="Q8BQOyd_WktS5H_BzxXp-8" value="专业" style="ellipse;whiteSpace=wrap;html=1;" vertex="1" parent="1">
          <mxGeometry x="720" y="385" width="80" height="45" as="geometry" />
        </mxCell>
        <mxCell id="Q8BQOyd_WktS5H_BzxXp-9" value="电话" style="ellipse;whiteSpace=wrap;html=1;" vertex="1" parent="1">
          <mxGeometry x="720" y="430" width="80" height="45" as="geometry" />
        </mxCell>
        <mxCell id="Q8BQOyd_WktS5H_BzxXp-10" value="学号" style="ellipse;whiteSpace=wrap;html=1;" vertex="1" parent="1">
          <mxGeometry x="720" y="180" width="80" height="45" as="geometry" />
        </mxCell>
        <mxCell id="Q8BQOyd_WktS5H_BzxXp-11" value="ID" style="ellipse;whiteSpace=wrap;html=1;" vertex="1" parent="1">
          <mxGeometry x="720" y="130" width="80" height="45" as="geometry" />
        </mxCell>
        <mxCell id="Q8BQOyd_WktS5H_BzxXp-12" value="邮箱" style="ellipse;whiteSpace=wrap;html=1;" vertex="1" parent="1">
          <mxGeometry x="720" y="480" width="80" height="45" as="geometry" />
        </mxCell>
        <mxCell id="Q8BQOyd_WktS5H_BzxXp-13" value="年级" style="ellipse;whiteSpace=wrap;html=1;" vertex="1" parent="1">
          <mxGeometry x="720" y="530" width="80" height="45" as="geometry" />
        </mxCell>
        <mxCell id="Q8BQOyd_WktS5H_BzxXp-14" value="密码" style="ellipse;whiteSpace=wrap;html=1;" vertex="1" parent="1">
          <mxGeometry x="720" y="580" width="80" height="45" as="geometry" />
        </mxCell>
        <mxCell id="Q8BQOyd_WktS5H_BzxXp-15" value="校园卡余额" style="ellipse;whiteSpace=wrap;html=1;" vertex="1" parent="1">
          <mxGeometry x="720" y="630" width="80" height="45" as="geometry" />
        </mxCell>
        <mxCell id="Q8BQOyd_WktS5H_BzxXp-16" value="" style="endArrow=none;html=1;rounded=0;entryX=0;entryY=0.5;entryDx=0;entryDy=0;exitX=1;exitY=0;exitDx=0;exitDy=0;" edge="1" parent="1" source="Q8BQOyd_WktS5H_BzxXp-2" target="Q8BQOyd_WktS5H_BzxXp-11">
          <mxGeometry width="50" height="50" relative="1" as="geometry">
            <mxPoint x="630" y="470" as="sourcePoint" />
            <mxPoint x="680" y="420" as="targetPoint" />
          </mxGeometry>
        </mxCell>
        <mxCell id="Q8BQOyd_WktS5H_BzxXp-17" value="" style="endArrow=none;html=1;rounded=0;entryX=0;entryY=0.5;entryDx=0;entryDy=0;exitX=1;exitY=0.25;exitDx=0;exitDy=0;" edge="1" parent="1" source="Q8BQOyd_WktS5H_BzxXp-2" target="Q8BQOyd_WktS5H_BzxXp-10">
          <mxGeometry width="50" height="50" relative="1" as="geometry">
            <mxPoint x="680" y="350" as="sourcePoint" />
            <mxPoint x="730" y="328" as="targetPoint" />
          </mxGeometry>
        </mxCell>
        <mxCell id="Q8BQOyd_WktS5H_BzxXp-18" value="" style="endArrow=none;html=1;rounded=0;entryX=0;entryY=0.5;entryDx=0;entryDy=0;exitX=1;exitY=0.25;exitDx=0;exitDy=0;" edge="1" parent="1" source="Q8BQOyd_WktS5H_BzxXp-2" target="Q8BQOyd_WktS5H_BzxXp-7">
          <mxGeometry width="50" height="50" relative="1" as="geometry">
            <mxPoint x="690" y="345" as="sourcePoint" />
            <mxPoint x="740" y="323" as="targetPoint" />
          </mxGeometry>
        </mxCell>
        <mxCell id="Q8BQOyd_WktS5H_BzxXp-19" value="" style="endArrow=none;html=1;rounded=0;entryX=0;entryY=0.5;entryDx=0;entryDy=0;exitX=1;exitY=0.5;exitDx=0;exitDy=0;" edge="1" parent="1" source="Q8BQOyd_WktS5H_BzxXp-2" target="Q8BQOyd_WktS5H_BzxXp-6">
          <mxGeometry width="50" height="50" relative="1" as="geometry">
            <mxPoint x="700" y="355" as="sourcePoint" />
            <mxPoint x="750" y="333" as="targetPoint" />
          </mxGeometry>
        </mxCell>
        <mxCell id="Q8BQOyd_WktS5H_BzxXp-20" value="" style="endArrow=none;html=1;rounded=0;entryX=0;entryY=0.5;entryDx=0;entryDy=0;exitX=1;exitY=0.5;exitDx=0;exitDy=0;" edge="1" parent="1" source="Q8BQOyd_WktS5H_BzxXp-2" target="Q8BQOyd_WktS5H_BzxXp-8">
          <mxGeometry width="50" height="50" relative="1" as="geometry">
            <mxPoint x="710" y="365" as="sourcePoint" />
            <mxPoint x="760" y="343" as="targetPoint" />
          </mxGeometry>
        </mxCell>
        <mxCell id="Q8BQOyd_WktS5H_BzxXp-21" value="" style="endArrow=none;html=1;rounded=0;entryX=0;entryY=0.5;entryDx=0;entryDy=0;exitX=1;exitY=0.5;exitDx=0;exitDy=0;" edge="1" parent="1" source="Q8BQOyd_WktS5H_BzxXp-2" target="Q8BQOyd_WktS5H_BzxXp-9">
          <mxGeometry width="50" height="50" relative="1" as="geometry">
            <mxPoint x="720" y="375" as="sourcePoint" />
            <mxPoint x="770" y="353" as="targetPoint" />
          </mxGeometry>
        </mxCell>
        <mxCell id="Q8BQOyd_WktS5H_BzxXp-22" value="" style="endArrow=none;html=1;rounded=0;entryX=0;entryY=0.5;entryDx=0;entryDy=0;exitX=1;exitY=0.5;exitDx=0;exitDy=0;" edge="1" parent="1" source="Q8BQOyd_WktS5H_BzxXp-2" target="Q8BQOyd_WktS5H_BzxXp-12">
          <mxGeometry width="50" height="50" relative="1" as="geometry">
            <mxPoint x="730" y="385" as="sourcePoint" />
            <mxPoint x="780" y="363" as="targetPoint" />
          </mxGeometry>
        </mxCell>
        <mxCell id="Q8BQOyd_WktS5H_BzxXp-23" value="" style="endArrow=none;html=1;rounded=0;entryX=0;entryY=0.5;entryDx=0;entryDy=0;exitX=1;exitY=0.75;exitDx=0;exitDy=0;" edge="1" parent="1" source="Q8BQOyd_WktS5H_BzxXp-2" target="Q8BQOyd_WktS5H_BzxXp-13">
          <mxGeometry width="50" height="50" relative="1" as="geometry">
            <mxPoint x="260" y="450" as="sourcePoint" />
            <mxPoint x="790" y="373" as="targetPoint" />
          </mxGeometry>
        </mxCell>
        <mxCell id="Q8BQOyd_WktS5H_BzxXp-24" value="" style="endArrow=none;html=1;rounded=0;entryX=0;entryY=0.5;entryDx=0;entryDy=0;exitX=1;exitY=0.75;exitDx=0;exitDy=0;" edge="1" parent="1" source="Q8BQOyd_WktS5H_BzxXp-2" target="Q8BQOyd_WktS5H_BzxXp-14">
          <mxGeometry width="50" height="50" relative="1" as="geometry">
            <mxPoint x="750" y="405" as="sourcePoint" />
            <mxPoint x="800" y="383" as="targetPoint" />
          </mxGeometry>
        </mxCell>
        <mxCell id="Q8BQOyd_WktS5H_BzxXp-25" value="" style="endArrow=none;html=1;rounded=0;entryX=0;entryY=0.5;entryDx=0;entryDy=0;exitX=1;exitY=1;exitDx=0;exitDy=0;" edge="1" parent="1" source="Q8BQOyd_WktS5H_BzxXp-2" target="Q8BQOyd_WktS5H_BzxXp-15">
          <mxGeometry width="50" height="50" relative="1" as="geometry">
            <mxPoint x="760" y="415" as="sourcePoint" />
            <mxPoint x="810" y="393" as="targetPoint" />
          </mxGeometry>
        </mxCell>
        <mxCell id="Q8BQOyd_WktS5H_BzxXp-72" value="课程表" style="rounded=0;whiteSpace=wrap;html=1;" vertex="1" parent="1">
          <mxGeometry x="990" y="478.75" width="70" height="30" as="geometry" />
        </mxCell>
        <mxCell id="Q8BQOyd_WktS5H_BzxXp-73" value="上课教室" style="ellipse;whiteSpace=wrap;html=1;" vertex="1" parent="1">
          <mxGeometry x="1240" y="330" width="80" height="45" as="geometry" />
        </mxCell>
        <mxCell id="Q8BQOyd_WktS5H_BzxXp-74" value="" style="endArrow=none;html=1;rounded=0;entryX=0;entryY=0.5;entryDx=0;entryDy=0;exitX=1;exitY=0.5;exitDx=0;exitDy=0;" edge="1" parent="1" source="Q8BQOyd_WktS5H_BzxXp-72" target="Q8BQOyd_WktS5H_BzxXp-73">
          <mxGeometry width="50" height="50" relative="1" as="geometry">
            <mxPoint x="1190" y="231.25" as="sourcePoint" />
            <mxPoint x="1200" y="221.25" as="targetPoint" />
          </mxGeometry>
        </mxCell>
        <mxCell id="Q8BQOyd_WktS5H_BzxXp-75" value="开课学年" style="ellipse;whiteSpace=wrap;html=1;" vertex="1" parent="1">
          <mxGeometry x="1240" y="385" width="80" height="45" as="geometry" />
        </mxCell>
        <mxCell id="Q8BQOyd_WktS5H_BzxXp-76" value="课程名" style="ellipse;whiteSpace=wrap;html=1;" vertex="1" parent="1">
          <mxGeometry x="1240" y="131.25" width="80" height="45" as="geometry" />
        </mxCell>
        <mxCell id="Q8BQOyd_WktS5H_BzxXp-77" value="开始周数" style="ellipse;whiteSpace=wrap;html=1;" vertex="1" parent="1">
          <mxGeometry x="1240" y="435" width="80" height="45" as="geometry" />
        </mxCell>
        <mxCell id="Q8BQOyd_WktS5H_BzxXp-78" value="结束周数" style="ellipse;whiteSpace=wrap;html=1;" vertex="1" parent="1">
          <mxGeometry x="1240" y="480" width="80" height="45" as="geometry" />
        </mxCell>
        <mxCell id="Q8BQOyd_WktS5H_BzxXp-79" value="课号" style="ellipse;whiteSpace=wrap;html=1;" vertex="1" parent="1">
          <mxGeometry x="1240" y="81.25" width="80" height="45" as="geometry" />
        </mxCell>
        <mxCell id="Q8BQOyd_WktS5H_BzxXp-80" value="ID" style="ellipse;whiteSpace=wrap;html=1;" vertex="1" parent="1">
          <mxGeometry x="1240" y="31.25" width="80" height="45" as="geometry" />
        </mxCell>
        <mxCell id="Q8BQOyd_WktS5H_BzxXp-81" value="课程学分" style="ellipse;whiteSpace=wrap;html=1;" vertex="1" parent="1">
          <mxGeometry x="1240" y="530" width="80" height="45" as="geometry" />
        </mxCell>
        <mxCell id="Q8BQOyd_WktS5H_BzxXp-82" value="课程简介" style="ellipse;whiteSpace=wrap;html=1;" vertex="1" parent="1">
          <mxGeometry x="1240" y="580" width="80" height="45" as="geometry" />
        </mxCell>
        <mxCell id="Q8BQOyd_WktS5H_BzxXp-83" value="可选人数" style="ellipse;whiteSpace=wrap;html=1;" vertex="1" parent="1">
          <mxGeometry x="1240" y="630" width="80" height="45" as="geometry" />
        </mxCell>
        <mxCell id="Q8BQOyd_WktS5H_BzxXp-84" value="已选人数" style="ellipse;whiteSpace=wrap;html=1;" vertex="1" parent="1">
          <mxGeometry x="1240" y="680" width="80" height="45" as="geometry" />
        </mxCell>
        <mxCell id="Q8BQOyd_WktS5H_BzxXp-85" value="" style="endArrow=none;html=1;rounded=0;entryX=0;entryY=0.5;entryDx=0;entryDy=0;exitX=1;exitY=0;exitDx=0;exitDy=0;" edge="1" parent="1" source="Q8BQOyd_WktS5H_BzxXp-72" target="Q8BQOyd_WktS5H_BzxXp-80">
          <mxGeometry width="50" height="50" relative="1" as="geometry">
            <mxPoint x="1150" y="371.25" as="sourcePoint" />
            <mxPoint x="1200" y="321.25" as="targetPoint" />
          </mxGeometry>
        </mxCell>
        <mxCell id="Q8BQOyd_WktS5H_BzxXp-86" value="" style="endArrow=none;html=1;rounded=0;entryX=0;entryY=0.5;entryDx=0;entryDy=0;exitX=1;exitY=0.25;exitDx=0;exitDy=0;" edge="1" parent="1" source="Q8BQOyd_WktS5H_BzxXp-72" target="Q8BQOyd_WktS5H_BzxXp-79">
          <mxGeometry width="50" height="50" relative="1" as="geometry">
            <mxPoint x="1200" y="251.25" as="sourcePoint" />
            <mxPoint x="1250" y="229.25" as="targetPoint" />
          </mxGeometry>
        </mxCell>
        <mxCell id="Q8BQOyd_WktS5H_BzxXp-87" value="" style="endArrow=none;html=1;rounded=0;entryX=0;entryY=0.5;entryDx=0;entryDy=0;exitX=1;exitY=0.25;exitDx=0;exitDy=0;" edge="1" parent="1" source="Q8BQOyd_WktS5H_BzxXp-72" target="Q8BQOyd_WktS5H_BzxXp-76">
          <mxGeometry width="50" height="50" relative="1" as="geometry">
            <mxPoint x="1210" y="246.25" as="sourcePoint" />
            <mxPoint x="1260" y="224.25" as="targetPoint" />
          </mxGeometry>
        </mxCell>
        <mxCell id="Q8BQOyd_WktS5H_BzxXp-88" value="" style="endArrow=none;html=1;rounded=0;entryX=0;entryY=0.5;entryDx=0;entryDy=0;exitX=1;exitY=0.5;exitDx=0;exitDy=0;" edge="1" parent="1" source="Q8BQOyd_WktS5H_BzxXp-72" target="Q8BQOyd_WktS5H_BzxXp-75">
          <mxGeometry width="50" height="50" relative="1" as="geometry">
            <mxPoint x="1220" y="256.25" as="sourcePoint" />
            <mxPoint x="1270" y="234.25" as="targetPoint" />
          </mxGeometry>
        </mxCell>
        <mxCell id="Q8BQOyd_WktS5H_BzxXp-89" value="" style="endArrow=none;html=1;rounded=0;entryX=0;entryY=0.5;entryDx=0;entryDy=0;exitX=1;exitY=0.5;exitDx=0;exitDy=0;" edge="1" parent="1" source="Q8BQOyd_WktS5H_BzxXp-72" target="Q8BQOyd_WktS5H_BzxXp-77">
          <mxGeometry width="50" height="50" relative="1" as="geometry">
            <mxPoint x="1230" y="266.25" as="sourcePoint" />
            <mxPoint x="1280" y="244.25" as="targetPoint" />
          </mxGeometry>
        </mxCell>
        <mxCell id="Q8BQOyd_WktS5H_BzxXp-90" value="" style="endArrow=none;html=1;rounded=0;entryX=0;entryY=0.5;entryDx=0;entryDy=0;exitX=1;exitY=0.5;exitDx=0;exitDy=0;" edge="1" parent="1" source="Q8BQOyd_WktS5H_BzxXp-72" target="Q8BQOyd_WktS5H_BzxXp-78">
          <mxGeometry width="50" height="50" relative="1" as="geometry">
            <mxPoint x="1240" y="276.25" as="sourcePoint" />
            <mxPoint x="1290" y="254.25" as="targetPoint" />
          </mxGeometry>
        </mxCell>
        <mxCell id="Q8BQOyd_WktS5H_BzxXp-91" value="" style="endArrow=none;html=1;rounded=0;entryX=0;entryY=0.5;entryDx=0;entryDy=0;exitX=1;exitY=0.5;exitDx=0;exitDy=0;" edge="1" parent="1" source="Q8BQOyd_WktS5H_BzxXp-72" target="Q8BQOyd_WktS5H_BzxXp-81">
          <mxGeometry width="50" height="50" relative="1" as="geometry">
            <mxPoint x="1250" y="286.25" as="sourcePoint" />
            <mxPoint x="1300" y="264.25" as="targetPoint" />
          </mxGeometry>
        </mxCell>
        <mxCell id="Q8BQOyd_WktS5H_BzxXp-92" value="" style="endArrow=none;html=1;rounded=0;entryX=0;entryY=0.5;entryDx=0;entryDy=0;exitX=1;exitY=0.75;exitDx=0;exitDy=0;" edge="1" parent="1" source="Q8BQOyd_WktS5H_BzxXp-72" target="Q8BQOyd_WktS5H_BzxXp-82">
          <mxGeometry width="50" height="50" relative="1" as="geometry">
            <mxPoint x="780" y="351.25" as="sourcePoint" />
            <mxPoint x="1310" y="274.25" as="targetPoint" />
          </mxGeometry>
        </mxCell>
        <mxCell id="Q8BQOyd_WktS5H_BzxXp-93" value="" style="endArrow=none;html=1;rounded=0;entryX=0;entryY=0.5;entryDx=0;entryDy=0;exitX=1;exitY=0.75;exitDx=0;exitDy=0;" edge="1" parent="1" source="Q8BQOyd_WktS5H_BzxXp-72" target="Q8BQOyd_WktS5H_BzxXp-83">
          <mxGeometry width="50" height="50" relative="1" as="geometry">
            <mxPoint x="1270" y="306.25" as="sourcePoint" />
            <mxPoint x="1320" y="284.25" as="targetPoint" />
          </mxGeometry>
        </mxCell>
        <mxCell id="Q8BQOyd_WktS5H_BzxXp-94" value="" style="endArrow=none;html=1;rounded=0;entryX=0;entryY=0.5;entryDx=0;entryDy=0;exitX=1;exitY=1;exitDx=0;exitDy=0;" edge="1" parent="1" source="Q8BQOyd_WktS5H_BzxXp-72" target="Q8BQOyd_WktS5H_BzxXp-84">
          <mxGeometry width="50" height="50" relative="1" as="geometry">
            <mxPoint x="1280" y="316.25" as="sourcePoint" />
            <mxPoint x="1330" y="294.25" as="targetPoint" />
          </mxGeometry>
        </mxCell>
        <mxCell id="Q8BQOyd_WktS5H_BzxXp-95" value="授课老师工号" style="ellipse;whiteSpace=wrap;html=1;" vertex="1" parent="1">
          <mxGeometry x="1240" y="228.75" width="80" height="45" as="geometry" />
        </mxCell>
        <mxCell id="Q8BQOyd_WktS5H_BzxXp-96" value="课程学时" style="ellipse;whiteSpace=wrap;html=1;" vertex="1" parent="1">
          <mxGeometry x="1240" y="178.75" width="80" height="45" as="geometry" />
        </mxCell>
        <mxCell id="Q8BQOyd_WktS5H_BzxXp-97" value="" style="endArrow=none;html=1;rounded=0;entryX=0;entryY=0.5;entryDx=0;entryDy=0;exitX=1;exitY=0.5;exitDx=0;exitDy=0;" edge="1" parent="1" source="Q8BQOyd_WktS5H_BzxXp-72" target="Q8BQOyd_WktS5H_BzxXp-96">
          <mxGeometry width="50" height="50" relative="1" as="geometry">
            <mxPoint x="1050" y="316.75" as="sourcePoint" />
            <mxPoint x="1220" y="-159.25" as="targetPoint" />
          </mxGeometry>
        </mxCell>
        <mxCell id="Q8BQOyd_WktS5H_BzxXp-98" value="" style="endArrow=none;html=1;rounded=0;entryX=0;entryY=0.5;entryDx=0;entryDy=0;exitX=1;exitY=0.5;exitDx=0;exitDy=0;" edge="1" parent="1" source="Q8BQOyd_WktS5H_BzxXp-72" target="Q8BQOyd_WktS5H_BzxXp-95">
          <mxGeometry width="50" height="50" relative="1" as="geometry">
            <mxPoint x="1040" y="298.75" as="sourcePoint" />
            <mxPoint x="1200" y="-129.25" as="targetPoint" />
          </mxGeometry>
        </mxCell>
        <mxCell id="Q8BQOyd_WktS5H_BzxXp-100" value="上课星期①" style="ellipse;whiteSpace=wrap;html=1;" vertex="1" parent="1">
          <mxGeometry x="1240" y="730" width="80" height="45" as="geometry" />
        </mxCell>
        <mxCell id="Q8BQOyd_WktS5H_BzxXp-101" value="上课节次①" style="ellipse;whiteSpace=wrap;html=1;" vertex="1" parent="1">
          <mxGeometry x="1240" y="780" width="80" height="45" as="geometry" />
        </mxCell>
        <mxCell id="Q8BQOyd_WktS5H_BzxXp-102" value="上课星期②" style="ellipse;whiteSpace=wrap;html=1;" vertex="1" parent="1">
          <mxGeometry x="1240" y="830" width="80" height="45" as="geometry" />
        </mxCell>
        <mxCell id="Q8BQOyd_WktS5H_BzxXp-103" value="上课节次②" style="ellipse;whiteSpace=wrap;html=1;" vertex="1" parent="1">
          <mxGeometry x="1240" y="880" width="80" height="45" as="geometry" />
        </mxCell>
        <mxCell id="Q8BQOyd_WktS5H_BzxXp-104" value="" style="endArrow=none;html=1;rounded=0;entryX=0;entryY=0.5;entryDx=0;entryDy=0;exitX=1;exitY=1;exitDx=0;exitDy=0;" edge="1" parent="1" source="Q8BQOyd_WktS5H_BzxXp-72" target="Q8BQOyd_WktS5H_BzxXp-100">
          <mxGeometry width="50" height="50" relative="1" as="geometry">
            <mxPoint x="990" y="558.75" as="sourcePoint" />
            <mxPoint x="1250" y="660.75" as="targetPoint" />
          </mxGeometry>
        </mxCell>
        <mxCell id="Q8BQOyd_WktS5H_BzxXp-105" value="" style="endArrow=none;html=1;rounded=0;entryX=0;entryY=0.5;entryDx=0;entryDy=0;exitX=1;exitY=1;exitDx=0;exitDy=0;" edge="1" parent="1" source="Q8BQOyd_WktS5H_BzxXp-72" target="Q8BQOyd_WktS5H_BzxXp-101">
          <mxGeometry width="50" height="50" relative="1" as="geometry">
            <mxPoint x="1000" y="568.75" as="sourcePoint" />
            <mxPoint x="1260" y="670.75" as="targetPoint" />
          </mxGeometry>
        </mxCell>
        <mxCell id="Q8BQOyd_WktS5H_BzxXp-106" value="" style="endArrow=none;html=1;rounded=0;entryX=0;entryY=0.5;entryDx=0;entryDy=0;exitX=1;exitY=1;exitDx=0;exitDy=0;" edge="1" parent="1" source="Q8BQOyd_WktS5H_BzxXp-72" target="Q8BQOyd_WktS5H_BzxXp-102">
          <mxGeometry width="50" height="50" relative="1" as="geometry">
            <mxPoint x="1010" y="578.75" as="sourcePoint" />
            <mxPoint x="1270" y="680.75" as="targetPoint" />
          </mxGeometry>
        </mxCell>
        <mxCell id="Q8BQOyd_WktS5H_BzxXp-107" value="" style="endArrow=none;html=1;rounded=0;entryX=0;entryY=0.5;entryDx=0;entryDy=0;exitX=1;exitY=1;exitDx=0;exitDy=0;" edge="1" parent="1" source="Q8BQOyd_WktS5H_BzxXp-72" target="Q8BQOyd_WktS5H_BzxXp-103">
          <mxGeometry width="50" height="50" relative="1" as="geometry">
            <mxPoint x="1020" y="588.75" as="sourcePoint" />
            <mxPoint x="1280" y="690.75" as="targetPoint" />
          </mxGeometry>
        </mxCell>
        <mxCell id="Q8BQOyd_WktS5H_BzxXp-131" value="教师表" style="rounded=0;whiteSpace=wrap;html=1;" vertex="1" parent="1">
          <mxGeometry x="190" y="405" width="70" height="30" as="geometry" />
        </mxCell>
        <mxCell id="Q8BQOyd_WktS5H_BzxXp-132" value="学院" style="ellipse;whiteSpace=wrap;html=1;" vertex="1" parent="1">
          <mxGeometry x="340" y="375" width="80" height="45" as="geometry" />
        </mxCell>
        <mxCell id="Q8BQOyd_WktS5H_BzxXp-133" value="" style="endArrow=none;html=1;rounded=0;entryX=0;entryY=0.5;entryDx=0;entryDy=0;exitX=1;exitY=0.5;exitDx=0;exitDy=0;" edge="1" parent="1" source="Q8BQOyd_WktS5H_BzxXp-131" target="Q8BQOyd_WktS5H_BzxXp-132">
          <mxGeometry width="50" height="50" relative="1" as="geometry">
            <mxPoint x="290" y="425" as="sourcePoint" />
            <mxPoint x="300" y="415" as="targetPoint" />
          </mxGeometry>
        </mxCell>
        <mxCell id="Q8BQOyd_WktS5H_BzxXp-134" value="专业" style="ellipse;whiteSpace=wrap;html=1;" vertex="1" parent="1">
          <mxGeometry x="340" y="430" width="80" height="45" as="geometry" />
        </mxCell>
        <mxCell id="Q8BQOyd_WktS5H_BzxXp-135" value="姓名" style="ellipse;whiteSpace=wrap;html=1;" vertex="1" parent="1">
          <mxGeometry x="340" y="325" width="80" height="45" as="geometry" />
        </mxCell>
        <mxCell id="Q8BQOyd_WktS5H_BzxXp-136" value="电话" style="ellipse;whiteSpace=wrap;html=1;" vertex="1" parent="1">
          <mxGeometry x="340" y="480" width="80" height="45" as="geometry" />
        </mxCell>
        <mxCell id="Q8BQOyd_WktS5H_BzxXp-137" value="邮箱" style="ellipse;whiteSpace=wrap;html=1;" vertex="1" parent="1">
          <mxGeometry x="340" y="525" width="80" height="45" as="geometry" />
        </mxCell>
        <mxCell id="Q8BQOyd_WktS5H_BzxXp-138" value="工号" style="ellipse;whiteSpace=wrap;html=1;" vertex="1" parent="1">
          <mxGeometry x="340" y="275" width="80" height="45" as="geometry" />
        </mxCell>
        <mxCell id="Q8BQOyd_WktS5H_BzxXp-139" value="ID" style="ellipse;whiteSpace=wrap;html=1;" vertex="1" parent="1">
          <mxGeometry x="340" y="225" width="80" height="45" as="geometry" />
        </mxCell>
        <mxCell id="Q8BQOyd_WktS5H_BzxXp-140" value="密码" style="ellipse;whiteSpace=wrap;html=1;" vertex="1" parent="1">
          <mxGeometry x="340" y="575" width="80" height="45" as="geometry" />
        </mxCell>
        <mxCell id="Q8BQOyd_WktS5H_BzxXp-144" value="" style="endArrow=none;html=1;rounded=0;entryX=0;entryY=0.5;entryDx=0;entryDy=0;exitX=1;exitY=0;exitDx=0;exitDy=0;" edge="1" parent="1" source="Q8BQOyd_WktS5H_BzxXp-131" target="Q8BQOyd_WktS5H_BzxXp-139">
          <mxGeometry width="50" height="50" relative="1" as="geometry">
            <mxPoint x="250" y="565" as="sourcePoint" />
            <mxPoint x="300" y="515" as="targetPoint" />
          </mxGeometry>
        </mxCell>
        <mxCell id="Q8BQOyd_WktS5H_BzxXp-145" value="" style="endArrow=none;html=1;rounded=0;entryX=0;entryY=0.5;entryDx=0;entryDy=0;exitX=1;exitY=0.25;exitDx=0;exitDy=0;" edge="1" parent="1" source="Q8BQOyd_WktS5H_BzxXp-131" target="Q8BQOyd_WktS5H_BzxXp-138">
          <mxGeometry width="50" height="50" relative="1" as="geometry">
            <mxPoint x="300" y="445" as="sourcePoint" />
            <mxPoint x="350" y="423" as="targetPoint" />
          </mxGeometry>
        </mxCell>
        <mxCell id="Q8BQOyd_WktS5H_BzxXp-146" value="" style="endArrow=none;html=1;rounded=0;entryX=0;entryY=0.5;entryDx=0;entryDy=0;exitX=1;exitY=0.25;exitDx=0;exitDy=0;" edge="1" parent="1" source="Q8BQOyd_WktS5H_BzxXp-131" target="Q8BQOyd_WktS5H_BzxXp-135">
          <mxGeometry width="50" height="50" relative="1" as="geometry">
            <mxPoint x="310" y="440" as="sourcePoint" />
            <mxPoint x="360" y="418" as="targetPoint" />
          </mxGeometry>
        </mxCell>
        <mxCell id="Q8BQOyd_WktS5H_BzxXp-147" value="" style="endArrow=none;html=1;rounded=0;entryX=0;entryY=0.5;entryDx=0;entryDy=0;exitX=1;exitY=0.5;exitDx=0;exitDy=0;" edge="1" parent="1" source="Q8BQOyd_WktS5H_BzxXp-131" target="Q8BQOyd_WktS5H_BzxXp-134">
          <mxGeometry width="50" height="50" relative="1" as="geometry">
            <mxPoint x="320" y="450" as="sourcePoint" />
            <mxPoint x="370" y="428" as="targetPoint" />
          </mxGeometry>
        </mxCell>
        <mxCell id="Q8BQOyd_WktS5H_BzxXp-148" value="" style="endArrow=none;html=1;rounded=0;entryX=0;entryY=0.5;entryDx=0;entryDy=0;exitX=1;exitY=0.5;exitDx=0;exitDy=0;" edge="1" parent="1" source="Q8BQOyd_WktS5H_BzxXp-131" target="Q8BQOyd_WktS5H_BzxXp-136">
          <mxGeometry width="50" height="50" relative="1" as="geometry">
            <mxPoint x="330" y="460" as="sourcePoint" />
            <mxPoint x="380" y="438" as="targetPoint" />
          </mxGeometry>
        </mxCell>
        <mxCell id="Q8BQOyd_WktS5H_BzxXp-149" value="" style="endArrow=none;html=1;rounded=0;entryX=0;entryY=0.5;entryDx=0;entryDy=0;exitX=1;exitY=0.5;exitDx=0;exitDy=0;" edge="1" parent="1" source="Q8BQOyd_WktS5H_BzxXp-131" target="Q8BQOyd_WktS5H_BzxXp-137">
          <mxGeometry width="50" height="50" relative="1" as="geometry">
            <mxPoint x="340" y="470" as="sourcePoint" />
            <mxPoint x="390" y="448" as="targetPoint" />
          </mxGeometry>
        </mxCell>
        <mxCell id="Q8BQOyd_WktS5H_BzxXp-150" value="" style="endArrow=none;html=1;rounded=0;entryX=0;entryY=0.5;entryDx=0;entryDy=0;exitX=1;exitY=0.5;exitDx=0;exitDy=0;" edge="1" parent="1" source="Q8BQOyd_WktS5H_BzxXp-131" target="Q8BQOyd_WktS5H_BzxXp-140">
          <mxGeometry width="50" height="50" relative="1" as="geometry">
            <mxPoint x="350" y="480" as="sourcePoint" />
            <mxPoint x="400" y="458" as="targetPoint" />
          </mxGeometry>
        </mxCell>
        <mxCell id="Q8BQOyd_WktS5H_BzxXp-154" value="选课表" style="rounded=0;whiteSpace=wrap;html=1;" vertex="1" parent="1">
          <mxGeometry x="1510" y="458.75" width="70" height="30" as="geometry" />
        </mxCell>
        <mxCell id="Q8BQOyd_WktS5H_BzxXp-155" value="工号" style="ellipse;whiteSpace=wrap;html=1;" vertex="1" parent="1">
          <mxGeometry x="1690" y="498.75" width="80" height="45" as="geometry" />
        </mxCell>
        <mxCell id="Q8BQOyd_WktS5H_BzxXp-156" value="" style="endArrow=none;html=1;rounded=0;entryX=0;entryY=0.5;entryDx=0;entryDy=0;exitX=1;exitY=0.5;exitDx=0;exitDy=0;" edge="1" parent="1" source="Q8BQOyd_WktS5H_BzxXp-154" target="Q8BQOyd_WktS5H_BzxXp-155">
          <mxGeometry width="50" height="50" relative="1" as="geometry">
            <mxPoint x="1670" y="538.75" as="sourcePoint" />
            <mxPoint x="1680" y="528.75" as="targetPoint" />
          </mxGeometry>
        </mxCell>
        <mxCell id="Q8BQOyd_WktS5H_BzxXp-157" value="课程考试类型" style="ellipse;whiteSpace=wrap;html=1;" vertex="1" parent="1">
          <mxGeometry x="1690" y="548.75" width="80" height="45" as="geometry" />
        </mxCell>
        <mxCell id="Q8BQOyd_WktS5H_BzxXp-158" value="学号" style="ellipse;whiteSpace=wrap;html=1;" vertex="1" parent="1">
          <mxGeometry x="1690" y="443.75" width="80" height="45" as="geometry" />
        </mxCell>
        <mxCell id="Q8BQOyd_WktS5H_BzxXp-159" value="考试成绩" style="ellipse;whiteSpace=wrap;html=1;" vertex="1" parent="1">
          <mxGeometry x="1690" y="603.75" width="80" height="45" as="geometry" />
        </mxCell>
        <mxCell id="Q8BQOyd_WktS5H_BzxXp-161" value="课号" style="ellipse;whiteSpace=wrap;html=1;" vertex="1" parent="1">
          <mxGeometry x="1690" y="393.75" width="80" height="45" as="geometry" />
        </mxCell>
        <mxCell id="Q8BQOyd_WktS5H_BzxXp-162" value="ID" style="ellipse;whiteSpace=wrap;html=1;" vertex="1" parent="1">
          <mxGeometry x="1690" y="338.75" width="80" height="45" as="geometry" />
        </mxCell>
        <mxCell id="Q8BQOyd_WktS5H_BzxXp-164" value="" style="endArrow=none;html=1;rounded=0;entryX=0;entryY=0.5;entryDx=0;entryDy=0;exitX=1;exitY=0;exitDx=0;exitDy=0;" edge="1" parent="1" source="Q8BQOyd_WktS5H_BzxXp-154" target="Q8BQOyd_WktS5H_BzxXp-162">
          <mxGeometry width="50" height="50" relative="1" as="geometry">
            <mxPoint x="1630" y="678.75" as="sourcePoint" />
            <mxPoint x="1680" y="628.75" as="targetPoint" />
          </mxGeometry>
        </mxCell>
        <mxCell id="Q8BQOyd_WktS5H_BzxXp-165" value="" style="endArrow=none;html=1;rounded=0;entryX=0;entryY=0.5;entryDx=0;entryDy=0;exitX=1;exitY=0.25;exitDx=0;exitDy=0;" edge="1" parent="1" source="Q8BQOyd_WktS5H_BzxXp-154" target="Q8BQOyd_WktS5H_BzxXp-161">
          <mxGeometry width="50" height="50" relative="1" as="geometry">
            <mxPoint x="1680" y="558.75" as="sourcePoint" />
            <mxPoint x="1730" y="536.75" as="targetPoint" />
          </mxGeometry>
        </mxCell>
        <mxCell id="Q8BQOyd_WktS5H_BzxXp-166" value="" style="endArrow=none;html=1;rounded=0;entryX=0;entryY=0.5;entryDx=0;entryDy=0;exitX=1;exitY=0.25;exitDx=0;exitDy=0;" edge="1" parent="1" source="Q8BQOyd_WktS5H_BzxXp-154" target="Q8BQOyd_WktS5H_BzxXp-158">
          <mxGeometry width="50" height="50" relative="1" as="geometry">
            <mxPoint x="1690" y="553.75" as="sourcePoint" />
            <mxPoint x="1740" y="531.75" as="targetPoint" />
          </mxGeometry>
        </mxCell>
        <mxCell id="Q8BQOyd_WktS5H_BzxXp-167" value="" style="endArrow=none;html=1;rounded=0;entryX=0;entryY=0.5;entryDx=0;entryDy=0;exitX=1;exitY=0.5;exitDx=0;exitDy=0;" edge="1" parent="1" source="Q8BQOyd_WktS5H_BzxXp-154" target="Q8BQOyd_WktS5H_BzxXp-157">
          <mxGeometry width="50" height="50" relative="1" as="geometry">
            <mxPoint x="1700" y="563.75" as="sourcePoint" />
            <mxPoint x="1750" y="541.75" as="targetPoint" />
          </mxGeometry>
        </mxCell>
        <mxCell id="Q8BQOyd_WktS5H_BzxXp-168" value="" style="endArrow=none;html=1;rounded=0;entryX=0;entryY=0.5;entryDx=0;entryDy=0;exitX=1;exitY=0.5;exitDx=0;exitDy=0;" edge="1" parent="1" source="Q8BQOyd_WktS5H_BzxXp-154" target="Q8BQOyd_WktS5H_BzxXp-159">
          <mxGeometry width="50" height="50" relative="1" as="geometry">
            <mxPoint x="1710" y="573.75" as="sourcePoint" />
            <mxPoint x="1760" y="551.75" as="targetPoint" />
          </mxGeometry>
        </mxCell>
        <mxCell id="Q8BQOyd_WktS5H_BzxXp-184" value="校园卡表" style="rounded=0;whiteSpace=wrap;html=1;" vertex="1" parent="1">
          <mxGeometry x="540" y="1017.5" width="70" height="30" as="geometry" />
        </mxCell>
        <mxCell id="Q8BQOyd_WktS5H_BzxXp-185" value="金额" style="ellipse;whiteSpace=wrap;html=1;" vertex="1" parent="1">
          <mxGeometry x="680" y="1095" width="80" height="45" as="geometry" />
        </mxCell>
        <mxCell id="Q8BQOyd_WktS5H_BzxXp-186" value="" style="endArrow=none;html=1;rounded=0;entryX=0;entryY=0.5;entryDx=0;entryDy=0;exitX=1;exitY=1;exitDx=0;exitDy=0;" edge="1" parent="1" source="Q8BQOyd_WktS5H_BzxXp-184" target="Q8BQOyd_WktS5H_BzxXp-185">
          <mxGeometry width="50" height="50" relative="1" as="geometry">
            <mxPoint x="720" y="1150" as="sourcePoint" />
            <mxPoint x="730" y="1140" as="targetPoint" />
          </mxGeometry>
        </mxCell>
        <mxCell id="Q8BQOyd_WktS5H_BzxXp-188" value="消费时间" style="ellipse;whiteSpace=wrap;html=1;" vertex="1" parent="1">
          <mxGeometry x="680" y="1045" width="80" height="45" as="geometry" />
        </mxCell>
        <mxCell id="Q8BQOyd_WktS5H_BzxXp-190" value="学号" style="ellipse;whiteSpace=wrap;html=1;" vertex="1" parent="1">
          <mxGeometry x="680" y="995" width="80" height="45" as="geometry" />
        </mxCell>
        <mxCell id="Q8BQOyd_WktS5H_BzxXp-191" value="消费流水ID" style="ellipse;whiteSpace=wrap;html=1;" vertex="1" parent="1">
          <mxGeometry x="680" y="940" width="80" height="45" as="geometry" />
        </mxCell>
        <mxCell id="Q8BQOyd_WktS5H_BzxXp-192" value="" style="endArrow=none;html=1;rounded=0;entryX=0;entryY=0.5;entryDx=0;entryDy=0;exitX=1;exitY=0;exitDx=0;exitDy=0;" edge="1" parent="1" source="Q8BQOyd_WktS5H_BzxXp-184" target="Q8BQOyd_WktS5H_BzxXp-191">
          <mxGeometry width="50" height="50" relative="1" as="geometry">
            <mxPoint x="680" y="1290" as="sourcePoint" />
            <mxPoint x="730" y="1240" as="targetPoint" />
          </mxGeometry>
        </mxCell>
        <mxCell id="Q8BQOyd_WktS5H_BzxXp-193" value="" style="endArrow=none;html=1;rounded=0;entryX=0;entryY=0.5;entryDx=0;entryDy=0;exitX=1;exitY=0.5;exitDx=0;exitDy=0;" edge="1" parent="1" source="Q8BQOyd_WktS5H_BzxXp-184" target="Q8BQOyd_WktS5H_BzxXp-190">
          <mxGeometry width="50" height="50" relative="1" as="geometry">
            <mxPoint x="730" y="1170" as="sourcePoint" />
            <mxPoint x="780" y="1148" as="targetPoint" />
          </mxGeometry>
        </mxCell>
        <mxCell id="Q8BQOyd_WktS5H_BzxXp-194" value="" style="endArrow=none;html=1;rounded=0;entryX=0;entryY=0.5;entryDx=0;entryDy=0;exitX=1;exitY=0.5;exitDx=0;exitDy=0;" edge="1" parent="1" source="Q8BQOyd_WktS5H_BzxXp-184" target="Q8BQOyd_WktS5H_BzxXp-188">
          <mxGeometry width="50" height="50" relative="1" as="geometry">
            <mxPoint x="740" y="1165" as="sourcePoint" />
            <mxPoint x="790" y="1143" as="targetPoint" />
          </mxGeometry>
        </mxCell>
        <mxCell id="Q8BQOyd_WktS5H_BzxXp-198" value="图书表" style="rounded=0;whiteSpace=wrap;html=1;" vertex="1" parent="1">
          <mxGeometry x="1890" y="461.25" width="70" height="30" as="geometry" />
        </mxCell>
        <mxCell id="Q8BQOyd_WktS5H_BzxXp-199" value="索引号" style="ellipse;whiteSpace=wrap;html=1;" vertex="1" parent="1">
          <mxGeometry x="2070" y="446.25" width="80" height="45" as="geometry" />
        </mxCell>
        <mxCell id="Q8BQOyd_WktS5H_BzxXp-200" value="" style="endArrow=none;html=1;rounded=0;entryX=0;entryY=0.5;entryDx=0;entryDy=0;exitX=1;exitY=0.5;exitDx=0;exitDy=0;" edge="1" parent="1" source="Q8BQOyd_WktS5H_BzxXp-198" target="Q8BQOyd_WktS5H_BzxXp-199">
          <mxGeometry width="50" height="50" relative="1" as="geometry">
            <mxPoint x="2020" y="496.25" as="sourcePoint" />
            <mxPoint x="2030" y="486.25" as="targetPoint" />
          </mxGeometry>
        </mxCell>
        <mxCell id="Q8BQOyd_WktS5H_BzxXp-201" value="出版社" style="ellipse;whiteSpace=wrap;html=1;" vertex="1" parent="1">
          <mxGeometry x="2070" y="501.25" width="80" height="45" as="geometry" />
        </mxCell>
        <mxCell id="Q8BQOyd_WktS5H_BzxXp-202" value="作者" style="ellipse;whiteSpace=wrap;html=1;" vertex="1" parent="1">
          <mxGeometry x="2070" y="396.25" width="80" height="45" as="geometry" />
        </mxCell>
        <mxCell id="Q8BQOyd_WktS5H_BzxXp-203" value="出版时间" style="ellipse;whiteSpace=wrap;html=1;" vertex="1" parent="1">
          <mxGeometry x="2070" y="556.25" width="80" height="45" as="geometry" />
        </mxCell>
        <mxCell id="Q8BQOyd_WktS5H_BzxXp-204" value="书名" style="ellipse;whiteSpace=wrap;html=1;" vertex="1" parent="1">
          <mxGeometry x="2070" y="346.25" width="80" height="45" as="geometry" />
        </mxCell>
        <mxCell id="Q8BQOyd_WktS5H_BzxXp-205" value="ID" style="ellipse;whiteSpace=wrap;html=1;" vertex="1" parent="1">
          <mxGeometry x="2070" y="296.25" width="80" height="45" as="geometry" />
        </mxCell>
        <mxCell id="Q8BQOyd_WktS5H_BzxXp-206" value="" style="endArrow=none;html=1;rounded=0;entryX=0;entryY=0.5;entryDx=0;entryDy=0;exitX=1;exitY=0;exitDx=0;exitDy=0;" edge="1" parent="1" source="Q8BQOyd_WktS5H_BzxXp-198" target="Q8BQOyd_WktS5H_BzxXp-205">
          <mxGeometry width="50" height="50" relative="1" as="geometry">
            <mxPoint x="1980" y="636.25" as="sourcePoint" />
            <mxPoint x="2030" y="586.25" as="targetPoint" />
          </mxGeometry>
        </mxCell>
        <mxCell id="Q8BQOyd_WktS5H_BzxXp-207" value="" style="endArrow=none;html=1;rounded=0;entryX=0;entryY=0.5;entryDx=0;entryDy=0;exitX=1;exitY=0.25;exitDx=0;exitDy=0;" edge="1" parent="1" source="Q8BQOyd_WktS5H_BzxXp-198" target="Q8BQOyd_WktS5H_BzxXp-204">
          <mxGeometry width="50" height="50" relative="1" as="geometry">
            <mxPoint x="2030" y="516.25" as="sourcePoint" />
            <mxPoint x="2080" y="494.25" as="targetPoint" />
          </mxGeometry>
        </mxCell>
        <mxCell id="Q8BQOyd_WktS5H_BzxXp-208" value="" style="endArrow=none;html=1;rounded=0;entryX=0;entryY=0.5;entryDx=0;entryDy=0;exitX=1;exitY=0.25;exitDx=0;exitDy=0;" edge="1" parent="1" source="Q8BQOyd_WktS5H_BzxXp-198" target="Q8BQOyd_WktS5H_BzxXp-202">
          <mxGeometry width="50" height="50" relative="1" as="geometry">
            <mxPoint x="2040" y="511.25" as="sourcePoint" />
            <mxPoint x="2090" y="489.25" as="targetPoint" />
          </mxGeometry>
        </mxCell>
        <mxCell id="Q8BQOyd_WktS5H_BzxXp-209" value="" style="endArrow=none;html=1;rounded=0;entryX=0;entryY=0.5;entryDx=0;entryDy=0;exitX=1;exitY=0.5;exitDx=0;exitDy=0;" edge="1" parent="1" source="Q8BQOyd_WktS5H_BzxXp-198" target="Q8BQOyd_WktS5H_BzxXp-201">
          <mxGeometry width="50" height="50" relative="1" as="geometry">
            <mxPoint x="2050" y="521.25" as="sourcePoint" />
            <mxPoint x="2100" y="499.25" as="targetPoint" />
          </mxGeometry>
        </mxCell>
        <mxCell id="Q8BQOyd_WktS5H_BzxXp-210" value="" style="endArrow=none;html=1;rounded=0;entryX=0;entryY=0.5;entryDx=0;entryDy=0;exitX=1;exitY=0.5;exitDx=0;exitDy=0;" edge="1" parent="1" source="Q8BQOyd_WktS5H_BzxXp-198" target="Q8BQOyd_WktS5H_BzxXp-203">
          <mxGeometry width="50" height="50" relative="1" as="geometry">
            <mxPoint x="2060" y="531.25" as="sourcePoint" />
            <mxPoint x="2070.0000000000077" y="573.75" as="targetPoint" />
          </mxGeometry>
        </mxCell>
        <mxCell id="Q8BQOyd_WktS5H_BzxXp-211" value="馆藏地点" style="ellipse;whiteSpace=wrap;html=1;" vertex="1" parent="1">
          <mxGeometry x="2070" y="606.25" width="80" height="45" as="geometry" />
        </mxCell>
        <mxCell id="Q8BQOyd_WktS5H_BzxXp-212" value="" style="endArrow=none;html=1;rounded=0;exitX=1;exitY=0.5;exitDx=0;exitDy=0;entryX=0;entryY=0.5;entryDx=0;entryDy=0;" edge="1" parent="1" source="Q8BQOyd_WktS5H_BzxXp-198" target="Q8BQOyd_WktS5H_BzxXp-211">
          <mxGeometry width="50" height="50" relative="1" as="geometry">
            <mxPoint x="2230" y="526.25" as="sourcePoint" />
            <mxPoint x="2280" y="476.25" as="targetPoint" />
          </mxGeometry>
        </mxCell>
        <mxCell id="Q8BQOyd_WktS5H_BzxXp-237" value="学校信息表" style="rounded=0;whiteSpace=wrap;html=1;" vertex="1" parent="1">
          <mxGeometry x="1140" y="1035" width="70" height="30" as="geometry" />
        </mxCell>
        <mxCell id="Q8BQOyd_WktS5H_BzxXp-238" value="封面图片地址" style="ellipse;whiteSpace=wrap;html=1;" vertex="1" parent="1">
          <mxGeometry x="1320" y="1085" width="80" height="45" as="geometry" />
        </mxCell>
        <mxCell id="Q8BQOyd_WktS5H_BzxXp-239" value="" style="endArrow=none;html=1;rounded=0;entryX=0;entryY=0.5;entryDx=0;entryDy=0;exitX=1;exitY=1;exitDx=0;exitDy=0;" edge="1" parent="1" source="Q8BQOyd_WktS5H_BzxXp-237" target="Q8BQOyd_WktS5H_BzxXp-238">
          <mxGeometry width="50" height="50" relative="1" as="geometry">
            <mxPoint x="1280" y="1155" as="sourcePoint" />
            <mxPoint x="1290" y="1145" as="targetPoint" />
          </mxGeometry>
        </mxCell>
        <mxCell id="Q8BQOyd_WktS5H_BzxXp-241" value="内容" style="ellipse;whiteSpace=wrap;html=1;" vertex="1" parent="1">
          <mxGeometry x="1320" y="1035" width="80" height="45" as="geometry" />
        </mxCell>
        <mxCell id="Q8BQOyd_WktS5H_BzxXp-243" value="标题" style="ellipse;whiteSpace=wrap;html=1;" vertex="1" parent="1">
          <mxGeometry x="1320" y="983" width="80" height="45" as="geometry" />
        </mxCell>
        <mxCell id="Q8BQOyd_WktS5H_BzxXp-244" value="ID" style="ellipse;whiteSpace=wrap;html=1;" vertex="1" parent="1">
          <mxGeometry x="1320" y="935" width="80" height="45" as="geometry" />
        </mxCell>
        <mxCell id="Q8BQOyd_WktS5H_BzxXp-245" value="" style="endArrow=none;html=1;rounded=0;entryX=0;entryY=0.5;entryDx=0;entryDy=0;exitX=1;exitY=0;exitDx=0;exitDy=0;" edge="1" parent="1" source="Q8BQOyd_WktS5H_BzxXp-237" target="Q8BQOyd_WktS5H_BzxXp-244">
          <mxGeometry width="50" height="50" relative="1" as="geometry">
            <mxPoint x="1240" y="1295" as="sourcePoint" />
            <mxPoint x="1290" y="1245" as="targetPoint" />
          </mxGeometry>
        </mxCell>
        <mxCell id="Q8BQOyd_WktS5H_BzxXp-246" value="" style="endArrow=none;html=1;rounded=0;entryX=0;entryY=0.5;entryDx=0;entryDy=0;exitX=1;exitY=0.5;exitDx=0;exitDy=0;" edge="1" parent="1" source="Q8BQOyd_WktS5H_BzxXp-237" target="Q8BQOyd_WktS5H_BzxXp-243">
          <mxGeometry width="50" height="50" relative="1" as="geometry">
            <mxPoint x="1180" y="1065" as="sourcePoint" />
            <mxPoint x="1340" y="1153" as="targetPoint" />
          </mxGeometry>
        </mxCell>
        <mxCell id="Q8BQOyd_WktS5H_BzxXp-247" value="" style="endArrow=none;html=1;rounded=0;entryX=0;entryY=0.5;entryDx=0;entryDy=0;exitX=1;exitY=0.5;exitDx=0;exitDy=0;" edge="1" parent="1" source="Q8BQOyd_WktS5H_BzxXp-237" target="Q8BQOyd_WktS5H_BzxXp-241">
          <mxGeometry width="50" height="50" relative="1" as="geometry">
            <mxPoint x="1300" y="1170" as="sourcePoint" />
            <mxPoint x="1350" y="1148" as="targetPoint" />
          </mxGeometry>
        </mxCell>
        <mxCell id="Q8BQOyd_WktS5H_BzxXp-268" value="地图表" style="rounded=0;whiteSpace=wrap;html=1;" vertex="1" parent="1">
          <mxGeometry x="1870" y="1022.5" width="70" height="30" as="geometry" />
        </mxCell>
        <mxCell id="Q8BQOyd_WktS5H_BzxXp-269" value="地图图片地址" style="ellipse;whiteSpace=wrap;html=1;" vertex="1" parent="1">
          <mxGeometry x="2010" y="1075" width="80" height="45" as="geometry" />
        </mxCell>
        <mxCell id="Q8BQOyd_WktS5H_BzxXp-270" value="" style="endArrow=none;html=1;rounded=0;entryX=0;entryY=0.5;entryDx=0;entryDy=0;exitX=1;exitY=1;exitDx=0;exitDy=0;" edge="1" parent="1" source="Q8BQOyd_WktS5H_BzxXp-268" target="Q8BQOyd_WktS5H_BzxXp-269">
          <mxGeometry width="50" height="50" relative="1" as="geometry">
            <mxPoint x="2050" y="1155" as="sourcePoint" />
            <mxPoint x="2060" y="1145" as="targetPoint" />
          </mxGeometry>
        </mxCell>
        <mxCell id="Q8BQOyd_WktS5H_BzxXp-272" value="名字" style="ellipse;whiteSpace=wrap;html=1;" vertex="1" parent="1">
          <mxGeometry x="2010" y="1015" width="80" height="45" as="geometry" />
        </mxCell>
        <mxCell id="Q8BQOyd_WktS5H_BzxXp-273" value="ID" style="ellipse;whiteSpace=wrap;html=1;" vertex="1" parent="1">
          <mxGeometry x="2010" y="960" width="80" height="45" as="geometry" />
        </mxCell>
        <mxCell id="Q8BQOyd_WktS5H_BzxXp-274" value="" style="endArrow=none;html=1;rounded=0;entryX=0;entryY=0.5;entryDx=0;entryDy=0;exitX=1;exitY=0;exitDx=0;exitDy=0;" edge="1" parent="1" source="Q8BQOyd_WktS5H_BzxXp-268" target="Q8BQOyd_WktS5H_BzxXp-273">
          <mxGeometry width="50" height="50" relative="1" as="geometry">
            <mxPoint x="2010" y="1295" as="sourcePoint" />
            <mxPoint x="2060" y="1245" as="targetPoint" />
          </mxGeometry>
        </mxCell>
        <mxCell id="Q8BQOyd_WktS5H_BzxXp-275" value="" style="endArrow=none;html=1;rounded=0;entryX=0;entryY=0.5;entryDx=0;entryDy=0;exitX=1;exitY=0.5;exitDx=0;exitDy=0;" edge="1" parent="1" source="Q8BQOyd_WktS5H_BzxXp-268" target="Q8BQOyd_WktS5H_BzxXp-272">
          <mxGeometry width="50" height="50" relative="1" as="geometry">
            <mxPoint x="1950" y="1065" as="sourcePoint" />
            <mxPoint x="2110" y="1153" as="targetPoint" />
          </mxGeometry>
        </mxCell>
        <mxCell id="Q8BQOyd_WktS5H_BzxXp-277" value="通知表" style="rounded=0;whiteSpace=wrap;html=1;" vertex="1" parent="1">
          <mxGeometry x="200" y="1025" width="70" height="30" as="geometry" />
        </mxCell>
        <mxCell id="Q8BQOyd_WktS5H_BzxXp-278" value="封面图片地址" style="ellipse;whiteSpace=wrap;html=1;" vertex="1" parent="1">
          <mxGeometry x="340" y="1150" width="80" height="45" as="geometry" />
        </mxCell>
        <mxCell id="Q8BQOyd_WktS5H_BzxXp-279" value="" style="endArrow=none;html=1;rounded=0;entryX=0;entryY=0.5;entryDx=0;entryDy=0;exitX=1;exitY=1;exitDx=0;exitDy=0;" edge="1" parent="1" source="Q8BQOyd_WktS5H_BzxXp-277" target="Q8BQOyd_WktS5H_BzxXp-278">
          <mxGeometry width="50" height="50" relative="1" as="geometry">
            <mxPoint x="520" y="1065" as="sourcePoint" />
            <mxPoint x="530" y="1055" as="targetPoint" />
          </mxGeometry>
        </mxCell>
        <mxCell id="Q8BQOyd_WktS5H_BzxXp-280" value="类别" style="ellipse;whiteSpace=wrap;html=1;" vertex="1" parent="1">
          <mxGeometry x="340" y="990" width="80" height="45" as="geometry" />
        </mxCell>
        <mxCell id="Q8BQOyd_WktS5H_BzxXp-281" value="标题" style="ellipse;whiteSpace=wrap;html=1;" vertex="1" parent="1">
          <mxGeometry x="340" y="935" width="80" height="45" as="geometry" />
        </mxCell>
        <mxCell id="Q8BQOyd_WktS5H_BzxXp-282" value="ID" style="ellipse;whiteSpace=wrap;html=1;" vertex="1" parent="1">
          <mxGeometry x="340" y="875" width="80" height="45" as="geometry" />
        </mxCell>
        <mxCell id="Q8BQOyd_WktS5H_BzxXp-283" value="" style="endArrow=none;html=1;rounded=0;entryX=0;entryY=0.5;entryDx=0;entryDy=0;exitX=1;exitY=0;exitDx=0;exitDy=0;" edge="1" parent="1" source="Q8BQOyd_WktS5H_BzxXp-277" target="Q8BQOyd_WktS5H_BzxXp-282">
          <mxGeometry width="50" height="50" relative="1" as="geometry">
            <mxPoint x="480" y="1205" as="sourcePoint" />
            <mxPoint x="530" y="1155" as="targetPoint" />
          </mxGeometry>
        </mxCell>
        <mxCell id="Q8BQOyd_WktS5H_BzxXp-284" value="" style="endArrow=none;html=1;rounded=0;entryX=0;entryY=0.5;entryDx=0;entryDy=0;exitX=1;exitY=0.5;exitDx=0;exitDy=0;" edge="1" parent="1" source="Q8BQOyd_WktS5H_BzxXp-277" target="Q8BQOyd_WktS5H_BzxXp-281">
          <mxGeometry width="50" height="50" relative="1" as="geometry">
            <mxPoint x="420" y="975" as="sourcePoint" />
            <mxPoint x="580" y="1063" as="targetPoint" />
          </mxGeometry>
        </mxCell>
        <mxCell id="Q8BQOyd_WktS5H_BzxXp-285" value="" style="endArrow=none;html=1;rounded=0;entryX=0;entryY=0.5;entryDx=0;entryDy=0;exitX=1;exitY=0.5;exitDx=0;exitDy=0;" edge="1" parent="1" source="Q8BQOyd_WktS5H_BzxXp-277" target="Q8BQOyd_WktS5H_BzxXp-280">
          <mxGeometry width="50" height="50" relative="1" as="geometry">
            <mxPoint x="540" y="1080" as="sourcePoint" />
            <mxPoint x="590" y="1058" as="targetPoint" />
          </mxGeometry>
        </mxCell>
        <mxCell id="Q8BQOyd_WktS5H_BzxXp-286" value="内容" style="ellipse;whiteSpace=wrap;html=1;" vertex="1" parent="1">
          <mxGeometry x="340" y="1095" width="80" height="45" as="geometry" />
        </mxCell>
        <mxCell id="Q8BQOyd_WktS5H_BzxXp-287" value="" style="endArrow=none;html=1;rounded=0;entryX=0;entryY=0.5;entryDx=0;entryDy=0;exitX=1;exitY=1;exitDx=0;exitDy=0;" edge="1" parent="1" target="Q8BQOyd_WktS5H_BzxXp-286" source="Q8BQOyd_WktS5H_BzxXp-277">
          <mxGeometry width="50" height="50" relative="1" as="geometry">
            <mxPoint x="390" y="1075" as="sourcePoint" />
            <mxPoint x="610" y="1158" as="targetPoint" />
          </mxGeometry>
        </mxCell>
        <mxCell id="Q8BQOyd_WktS5H_BzxXp-288" value="年份" style="ellipse;whiteSpace=wrap;html=1;" vertex="1" parent="1">
          <mxGeometry x="340" y="1040" width="80" height="45" as="geometry" />
        </mxCell>
        <mxCell id="Q8BQOyd_WktS5H_BzxXp-289" value="" style="endArrow=none;html=1;rounded=0;entryX=0;entryY=0.5;entryDx=0;entryDy=0;exitX=1;exitY=1;exitDx=0;exitDy=0;" edge="1" parent="1" target="Q8BQOyd_WktS5H_BzxXp-288" source="Q8BQOyd_WktS5H_BzxXp-277">
          <mxGeometry width="50" height="50" relative="1" as="geometry">
            <mxPoint x="390" y="1085" as="sourcePoint" />
            <mxPoint x="610" y="1168" as="targetPoint" />
          </mxGeometry>
        </mxCell>
        <mxCell id="Q8BQOyd_WktS5H_BzxXp-292" value="电话表" style="rounded=0;whiteSpace=wrap;html=1;" vertex="1" parent="1">
          <mxGeometry x="1560" y="1025" width="70" height="30" as="geometry" />
        </mxCell>
        <mxCell id="Q8BQOyd_WktS5H_BzxXp-293" value="电话" style="ellipse;whiteSpace=wrap;html=1;" vertex="1" parent="1">
          <mxGeometry x="1700" y="1072.5" width="80" height="45" as="geometry" />
        </mxCell>
        <mxCell id="Q8BQOyd_WktS5H_BzxXp-294" value="" style="endArrow=none;html=1;rounded=0;entryX=0;entryY=0.5;entryDx=0;entryDy=0;exitX=1;exitY=1;exitDx=0;exitDy=0;" edge="1" parent="1" source="Q8BQOyd_WktS5H_BzxXp-292" target="Q8BQOyd_WktS5H_BzxXp-293">
          <mxGeometry width="50" height="50" relative="1" as="geometry">
            <mxPoint x="1740" y="1157.5" as="sourcePoint" />
            <mxPoint x="1750" y="1147.5" as="targetPoint" />
          </mxGeometry>
        </mxCell>
        <mxCell id="Q8BQOyd_WktS5H_BzxXp-295" value="联系人名字" style="ellipse;whiteSpace=wrap;html=1;" vertex="1" parent="1">
          <mxGeometry x="1700" y="1017.5" width="80" height="45" as="geometry" />
        </mxCell>
        <mxCell id="Q8BQOyd_WktS5H_BzxXp-296" value="ID" style="ellipse;whiteSpace=wrap;html=1;" vertex="1" parent="1">
          <mxGeometry x="1700" y="962.5" width="80" height="45" as="geometry" />
        </mxCell>
        <mxCell id="Q8BQOyd_WktS5H_BzxXp-297" value="" style="endArrow=none;html=1;rounded=0;entryX=0;entryY=0.5;entryDx=0;entryDy=0;exitX=1;exitY=0;exitDx=0;exitDy=0;" edge="1" parent="1" source="Q8BQOyd_WktS5H_BzxXp-292" target="Q8BQOyd_WktS5H_BzxXp-296">
          <mxGeometry width="50" height="50" relative="1" as="geometry">
            <mxPoint x="1700" y="1297.5" as="sourcePoint" />
            <mxPoint x="1750" y="1247.5" as="targetPoint" />
          </mxGeometry>
        </mxCell>
        <mxCell id="Q8BQOyd_WktS5H_BzxXp-298" value="" style="endArrow=none;html=1;rounded=0;entryX=0;entryY=0.5;entryDx=0;entryDy=0;exitX=1;exitY=0.5;exitDx=0;exitDy=0;" edge="1" parent="1" source="Q8BQOyd_WktS5H_BzxXp-292" target="Q8BQOyd_WktS5H_BzxXp-295">
          <mxGeometry width="50" height="50" relative="1" as="geometry">
            <mxPoint x="1640" y="1067.5" as="sourcePoint" />
            <mxPoint x="1800" y="1155.5" as="targetPoint" />
          </mxGeometry>
        </mxCell>
        <mxCell id="Q8BQOyd_WktS5H_BzxXp-299" value="网址表" style="rounded=0;whiteSpace=wrap;html=1;" vertex="1" parent="1">
          <mxGeometry x="830" y="1025" width="70" height="30" as="geometry" />
        </mxCell>
        <mxCell id="Q8BQOyd_WktS5H_BzxXp-300" value="链接" style="ellipse;whiteSpace=wrap;html=1;" vertex="1" parent="1">
          <mxGeometry x="970" y="1070" width="80" height="45" as="geometry" />
        </mxCell>
        <mxCell id="Q8BQOyd_WktS5H_BzxXp-301" value="" style="endArrow=none;html=1;rounded=0;entryX=0;entryY=0.5;entryDx=0;entryDy=0;exitX=1;exitY=1;exitDx=0;exitDy=0;" edge="1" parent="1" source="Q8BQOyd_WktS5H_BzxXp-299" target="Q8BQOyd_WktS5H_BzxXp-300">
          <mxGeometry width="50" height="50" relative="1" as="geometry">
            <mxPoint x="1060" y="1280" as="sourcePoint" />
            <mxPoint x="1070" y="1270" as="targetPoint" />
          </mxGeometry>
        </mxCell>
        <mxCell id="Q8BQOyd_WktS5H_BzxXp-302" value="网址名" style="ellipse;whiteSpace=wrap;html=1;" vertex="1" parent="1">
          <mxGeometry x="970" y="1017.5" width="80" height="45" as="geometry" />
        </mxCell>
        <mxCell id="Q8BQOyd_WktS5H_BzxXp-303" value="ID" style="ellipse;whiteSpace=wrap;html=1;" vertex="1" parent="1">
          <mxGeometry x="970" y="965" width="80" height="45" as="geometry" />
        </mxCell>
        <mxCell id="Q8BQOyd_WktS5H_BzxXp-304" value="" style="endArrow=none;html=1;rounded=0;entryX=0;entryY=0.5;entryDx=0;entryDy=0;exitX=1;exitY=0;exitDx=0;exitDy=0;" edge="1" parent="1" source="Q8BQOyd_WktS5H_BzxXp-299" target="Q8BQOyd_WktS5H_BzxXp-303">
          <mxGeometry width="50" height="50" relative="1" as="geometry">
            <mxPoint x="1020" y="1420" as="sourcePoint" />
            <mxPoint x="1070" y="1370" as="targetPoint" />
          </mxGeometry>
        </mxCell>
        <mxCell id="Q8BQOyd_WktS5H_BzxXp-305" value="" style="endArrow=none;html=1;rounded=0;entryX=0;entryY=0.5;entryDx=0;entryDy=0;exitX=1;exitY=0.5;exitDx=0;exitDy=0;" edge="1" parent="1" source="Q8BQOyd_WktS5H_BzxXp-299" target="Q8BQOyd_WktS5H_BzxXp-302">
          <mxGeometry width="50" height="50" relative="1" as="geometry">
            <mxPoint x="960" y="1190" as="sourcePoint" />
            <mxPoint x="1120" y="1278" as="targetPoint" />
          </mxGeometry>
        </mxCell>
        <mxCell id="Q8BQOyd_WktS5H_BzxXp-320" value="授课老师姓名" style="ellipse;whiteSpace=wrap;html=1;" vertex="1" parent="1">
          <mxGeometry x="1240" y="280" width="80" height="45" as="geometry" />
        </mxCell>
        <mxCell id="Q8BQOyd_WktS5H_BzxXp-321" value="" style="endArrow=none;html=1;rounded=0;exitX=1;exitY=0.5;exitDx=0;exitDy=0;entryX=0;entryY=0.5;entryDx=0;entryDy=0;" edge="1" parent="1" source="Q8BQOyd_WktS5H_BzxXp-72" target="Q8BQOyd_WktS5H_BzxXp-320">
          <mxGeometry width="50" height="50" relative="1" as="geometry">
            <mxPoint x="1300" y="580" as="sourcePoint" />
            <mxPoint x="1350" y="530" as="targetPoint" />
          </mxGeometry>
        </mxCell>
      </root>
    </mxGraphModel>
  </diagram>
</mxfile>
